<svg xmlns="http://www.w3.org/2000/svg" xmlns:xlink="http://www.w3.org/1999/xlink" version="1.1" class="marks" width="533" height="541" viewBox="0 0 533 541"><rect width="533" height="541" fill="white"/><g fill="none" stroke-miterlimit="10" transform="translate(39,10)"><g class="mark-group role-frame root" role="graphics-object" aria-roledescription="group mark container"><g transform="translate(0,0)"><path class="background" aria-hidden="true" d="M0.5,0.5h400v300h-400Z" stroke="#ddd"/><g><g class="mark-group role-axis" role="graphics-symbol" aria-roledescription="axis" aria-label="X-axis for a linear scale with values from 1,500 to 5,000"><g transform="translate(0.5,300.5)"><path class="background" aria-hidden="true" d="M0,0h0v0h0Z" pointer-events="none"/><g><g class="mark-rule role-axis-grid" pointer-events="none"><line transform="translate(0,-300)" x2="0" y2="300" stroke="#ddd" stroke-width="1" opacity="1"/><line transform="translate(57,-300)" x2="0" y2="300" stroke="#ddd" stroke-width="1" opacity="1"/><line transform="translate(114,-300)" x2="0" y2="300" stroke="#ddd" stroke-width="1" opacity="1"/><line transform="translate(171,-300)" x2="0" y2="300" stroke="#ddd" stroke-width="1" opacity="1"/><line transform="translate(229,-300)" x2="0" y2="300" stroke="#ddd" stroke-width="1" opacity="1"/><line transform="translate(286,-300)" x2="0" y2="300" stroke="#ddd" stroke-width="1" opacity="1"/><line transform="translate(343,-300)" x2="0" y2="300" stroke="#ddd" stroke-width="1" opacity="1"/><line transform="translate(400,-300)" x2="0" y2="300" stroke="#ddd" stroke-width="1" opacity="1"/></g></g><path class="foreground" aria-hidden="true" d="" pointer-events="none" display="none"/></g></g><g class="mark-group role-axis" role="graphics-symbol" aria-roledescription="axis" aria-label="Y-axis for a linear scale with values from 0 to 45"><g transform="translate(0.5,0.5)"><path class="background" aria-hidden="true" d="M0,0h0v0h0Z" pointer-events="none"/><g><g class="mark-rule role-axis-grid" pointer-events="none"><line transform="translate(0,300)" x2="400" y2="0" stroke="#ddd" stroke-width="1" opacity="1"/><line transform="translate(0,267)" x2="400" y2="0" stroke="#ddd" stroke-width="1" opacity="1"/><line transform="translate(0,233)" x2="400" y2="0" stroke="#ddd" stroke-width="1" opacity="1"/><line transform="translate(0,200)" x2="400" y2="0" stroke="#ddd" stroke-width="1" opacity="1"/><line transform="translate(0,167)" x2="400" y2="0" stroke="#ddd" stroke-width="1" opacity="1"/><line transform="translate(0,133)" x2="400" y2="0" stroke="#ddd" stroke-width="1" opacity="1"/><line transform="translate(0,100)" x2="400" y2="0" stroke="#ddd" stroke-width="1" opacity="1"/><line transform="translate(0,67)" x2="400" y2="0" stroke="#ddd" stroke-width="1" opacity="1"/><line transform="translate(0,33)" x2="400" y2="0" stroke="#ddd" stroke-width="1" opacity="1"/><line transform="translate(0,0)" x2="400" y2="0" stroke="#ddd" stroke-width="1" opacity="1"/></g></g><path class="foreground" aria-hidden="true" d="" pointer-events="none" display="none"/></g></g><g class="mark-group role-axis" role="graphics-symbol" aria-roledescription="axis" aria-label="X-axis titled 'Weight' for a linear scale with values from 1,500 to 5,000"><g transform="translate(0.5,300.5)"><path class="background" aria-hidden="true" d="M0,0h0v0h0Z" pointer-events="none"/><g><g class="mark-rule role-axis-tick" pointer-events="none"><line transform="translate(0,0)" x2="0" y2="5" stroke="#888" stroke-width="1" opacity="1"/><line transform="translate(57,0)" x2="0" y2="5" stroke="#888" stroke-width="1" opacity="1"/><line transform="translate(114,0)" x2="0" y2="5" stroke="#888" stroke-width="1" opacity="1"/><line transform="translate(171,0)" x2="0" y2="5" stroke="#888" stroke-width="1" opacity="1"/><line transform="translate(229,0)" x2="0" y2="5" stroke="#888" stroke-width="1" opacity="1"/><line transform="translate(286,0)" x2="0" y2="5" stroke="#888" stroke-width="1" opacity="1"/><line transform="translate(343,0)" x2="0" y2="5" stroke="#888" stroke-width="1" opacity="1"/><line transform="translate(400,0)" x2="0" y2="5" stroke="#888" stroke-width="1" opacity="1"/></g><g class="mark-text role-axis-label" pointer-events="none"><text text-anchor="start" transform="translate(0,15)" font-family="sans-serif" font-size="10px" fill="#000" opacity="1">1,500</text><text text-anchor="middle" transform="translate(57.14285714285714,15)" font-family="sans-serif" font-size="10px" fill="#000" opacity="1">2,000</text><text text-anchor="middle" transform="translate(114.28571428571428,15)" font-family="sans-serif" font-size="10px" fill="#000" opacity="1">2,500</text><text text-anchor="middle" transform="translate(171.42857142857142,15)" font-family="sans-serif" font-size="10px" fill="#000" opacity="1">3,000</text><text text-anchor="middle" transform="translate(228.57142857142856,15)" font-family="sans-serif" font-size="10px" fill="#000" opacity="1">3,500</text><text text-anchor="middle" transform="translate(285.7142857142857,15)" font-family="sans-serif" font-size="10px" fill="#000" opacity="1">4,000</text><text text-anchor="middle" transform="translate(342.85714285714283,15)" font-family="sans-serif" font-size="10px" fill="#000" opacity="1">4,500</text><text text-anchor="end" transform="translate(400,15)" font-family="sans-serif" font-size="10px" fill="#000" opacity="1">5,000</text></g><g class="mark-rule role-axis-domain" pointer-events="none"><line transform="translate(0,0)" x2="400" y2="0" stroke="#888" stroke-width="1" opacity="1"/></g><g class="mark-text role-axis-title" pointer-events="none"><text text-anchor="middle" transform="translate(200,30)" font-family="sans-serif" font-size="11px" font-weight="bold" fill="#000" opacity="1">Weight</text></g></g><path class="foreground" aria-hidden="true" d="" pointer-events="none" display="none"/></g></g><g class="mark-group role-axis" role="graphics-symbol" aria-roledescription="axis" aria-label="Y-axis titled 'MPG' for a linear scale with values from 0 to 45"><g transform="translate(0.5,0.5)"><path class="background" aria-hidden="true" d="M0,0h0v0h0Z" pointer-events="none"/><g><g class="mark-rule role-axis-tick" pointer-events="none"><line transform="translate(0,300)" x2="-5" y2="0" stroke="#888" stroke-width="1" opacity="1"/><line transform="translate(0,267)" x2="-5" y2="0" stroke="#888" stroke-width="1" opacity="1"/><line transform="translate(0,233)" x2="-5" y2="0" stroke="#888" stroke-width="1" opacity="1"/><line transform="translate(0,200)" x2="-5" y2="0" stroke="#888" stroke-width="1" opacity="1"/><line transform="translate(0,167)" x2="-5" y2="0" stroke="#888" stroke-width="1" opacity="1"/><line transform="translate(0,133)" x2="-5" y2="0" stroke="#888" stroke-width="1" opacity="1"/><line transform="translate(0,100)" x2="-5" y2="0" stroke="#888" stroke-width="1" opacity="1"/><line transform="translate(0,67)" x2="-5" y2="0" stroke="#888" stroke-width="1" opacity="1"/><line transform="translate(0,33)" x2="-5" y2="0" stroke="#888" stroke-width="1" opacity="1"/><line transform="translate(0,0)" x2="-5" y2="0" stroke="#888" stroke-width="1" opacity="1"/></g><g class="mark-text role-axis-label" pointer-events="none"><text text-anchor="end" transform="translate(-7,303)" font-family="sans-serif" font-size="10px" fill="#000" opacity="1">0</text><text text-anchor="end" transform="translate(-7,269.66666666666663)" font-family="sans-serif" font-size="10px" fill="#000" opacity="1">5</text><text text-anchor="end" transform="translate(-7,236.33333333333334)" font-family="sans-serif" font-size="10px" fill="#000" opacity="1">10</text><text text-anchor="end" transform="translate(-7,203.00000000000003)" font-family="sans-serif" font-size="10px" fill="#000" opacity="1">15</text><text text-anchor="end" transform="translate(-7,169.66666666666669)" font-family="sans-serif" font-size="10px" fill="#000" opacity="1">20</text><text text-anchor="end" transform="translate(-7,136.33333333333331)" font-family="sans-serif" font-size="10px" fill="#000" opacity="1">25</text><text text-anchor="end" transform="translate(-7,103.00000000000001)" font-family="sans-serif" font-size="10px" fill="#000" opacity="1">30</text><text text-anchor="end" transform="translate(-7,69.66666666666666)" font-family="sans-serif" font-size="10px" fill="#000" opacity="1">35</text><text text-anchor="end" transform="translate(-7,36.33333333333335)" font-family="sans-serif" font-size="10px" fill="#000" opacity="1">40</text><text text-anchor="end" transform="translate(-7,3)" font-family="sans-serif" font-size="10px" fill="#000" opacity="1">45</text></g><g class="mark-rule role-axis-domain" pointer-events="none"><line transform="translate(0,300)" x2="0" y2="-300" stroke="#888" stroke-width="1" opacity="1"/></g><g class="mark-text role-axis-title" pointer-events="none"><text text-anchor="middle" transform="translate(-22.123046875,150) rotate(-90) translate(0,-2)" font-family="sans-serif" font-size="11px" font-weight="bold" fill="#000" opacity="1">MPG</text></g></g><path class="foreground" aria-hidden="true" d="" pointer-events="none" display="none"/></g></g><g class="mark-symbol role-mark marks" role="graphics-symbol" aria-roledescription="symbol mark container"><path transform="translate(222.74285714285713,186.66666666666666)" d="M8.33582359795238,0A8.33582359795238,8.33582359795238,0,1,1,-8.33582359795238,0A8.33582359795238,8.33582359795238,0,1,1,8.33582359795238,0" fill="olive" stroke-width="2" opacity="0.5"/><path transform="translate(324.6857142857143,200.00000000000003)" d="M9.182451509827704,0A9.182451509827704,9.182451509827704,0,1,1,-9.182451509827704,0A9.182451509827704,9.182451509827704,0,1,1,9.182451509827704,0" fill="olive" stroke-width="2" opacity="0.5"/><path transform="translate(99.65714285714286,140)" d="M5.560949316741772,0A5.560949316741772,5.560949316741772,0,1,1,-5.560949316741772,0A5.560949316741772,5.560949316741772,0,1,1,5.560949316741772,0" fill="fuchsia" stroke-width="2" opacity="0.5"/><path transform="translate(124.22857142857143,160)" d="M6.3105493982588525,0A6.3105493982588525,6.3105493982588525,0,1,1,-6.3105493982588525,0A6.3105493982588525,6.3105493982588525,0,1,1,6.3105493982588525,0" fill="olive" stroke-width="2" opacity="0.5"/><path transform="translate(83.88571428571429,126.66666666666669)" d="M4.7972955864549585,0A4.7972955864549585,4.7972955864549585,0,1,1,-4.7972955864549585,0A4.7972955864549585,4.7972955864549585,0,1,1,4.7972955864549585,0" fill="lightcoral" stroke-width="2" opacity="0.5"/><path transform="translate(356,233.33333333333334)" d="M9.28950718930906,0A9.28950718930906,9.28950718930906,0,1,1,-9.28950718930906,0A9.28950718930906,9.28950718930906,0,1,1,9.28950718930906,0" fill="olive" stroke-width="2" opacity="0.5"/><path transform="translate(83.2,133.33333333333331)" d="M4.693109938929239,0A4.693109938929239,4.693109938929239,0,1,1,-4.693109938929239,0A4.693109938929239,4.693109938929239,0,1,1,4.693109938929239,0" fill="fuchsia" stroke-width="2" opacity="0.5"/><path transform="translate(62.4,133.33333333333331)" d="M3.6230380200022774,0A3.6230380200022774,3.6230380200022774,0,1,1,-3.6230380200022774,0A3.6230380200022774,3.6230380200022774,0,1,1,3.6230380200022774,0" fill="olive" stroke-width="2" opacity="0.5"/><path transform="translate(205.94285714285715,173.33333333333331)" d="M8.276302979666461,0A8.276302979666461,8.276302979666461,0,1,1,-8.276302979666461,0A8.276302979666461,8.276302979666461,0,1,1,8.276302979666461,0" fill="olive" stroke-width="2" opacity="0.5"/><path transform="translate(303.31428571428575,206.66666666666666)" d="M8.964505538542648,0A8.964505538542648,8.964505538542648,0,1,1,-8.964505538542648,0A8.964505538542648,8.964505538542648,0,1,1,8.964505538542648,0" fill="olive" stroke-width="2" opacity="0.5"/><path transform="translate(370.97142857142853,213.33333333333334)" d="M9.447816464932846,0A9.447816464932846,9.447816464932846,0,1,1,-9.447816464932846,0A9.447816464932846,9.447816464932846,0,1,1,9.447816464932846,0" fill="olive" stroke-width="2" opacity="0.5"/><path transform="translate(187.31428571428572,180)" d="M7.972036802882739,0A7.972036802882739,7.972036802882739,0,1,1,-7.972036802882739,0A7.972036802882739,7.972036802882739,0,1,1,7.972036802882739,0" fill="olive" stroke-width="2" opacity="0.5"/><path transform="translate(31.2,93.33333333333333)" d="M2.283920343363897,0A2.283920343363897,2.283920343363897,0,1,1,-2.283920343363897,0A2.283920343363897,2.283920343363897,0,1,1,2.283920343363897,0" fill="fuchsia" stroke-width="2" opacity="0.5"/><path transform="translate(88.91428571428571,140)" d="M5.097091040843952,0A5.097091040843952,5.097091040843952,0,1,1,-5.097091040843952,0A5.097091040843952,5.097091040843952,0,1,1,5.097091040843952,0" fill="fuchsia" stroke-width="2" opacity="0.5"/><path transform="translate(82.97142857142858,160)" d="M4.586558279792439,0A4.586558279792439,4.586558279792439,0,1,1,-4.586558279792439,0A4.586558279792439,4.586558279792439,0,1,1,4.586558279792439,0" fill="olive" stroke-width="2" opacity="0.5"/><path transform="translate(300.45714285714286,206.66666666666666)" d="M8.853520851089364,0A8.853520851089364,8.853520851089364,0,1,1,-8.853520851089364,0A8.853520851089364,8.853520851089364,0,1,1,8.853520851089364,0" fill="olive" stroke-width="2" opacity="0.5"/><path transform="translate(319.3142857142857,213.33333333333334)" d="M9.07413288642223,0A9.07413288642223,9.07413288642223,0,1,1,-9.07413288642223,0A9.07413288642223,9.07413288642223,0,1,1,9.07413288642223,0" fill="olive" stroke-width="2" opacity="0.5"/><path transform="translate(102.28571428571429,153.33333333333331)" d="M5.735999075423428,0A5.735999075423428,5.735999075423428,0,1,1,-5.735999075423428,0A5.735999075423428,5.735999075423428,0,1,1,5.735999075423428,0" fill="olive" stroke-width="2" opacity="0.5"/><path transform="translate(114.97142857142858,146.66666666666669)" d="M5.988988022035934,0A5.988988022035934,5.988988022035934,0,1,1,-5.988988022035934,0A5.988988022035934,5.988988022035934,0,1,1,5.988988022035934,0" fill="fuchsia" stroke-width="2" opacity="0.5"/><path transform="translate(68.57142857142857,120)" d="M3.886377823149682,0A3.886377823149682,3.886377823149682,0,1,1,-3.886377823149682,0A3.886377823149682,3.886377823149682,0,1,1,3.886377823149682,0" fill="fuchsia" stroke-width="2" opacity="0.5"/><path transform="translate(290.51428571428573,206.66666666666666)" d="M8.741127122447454,0A8.741127122447454,8.741127122447454,0,1,1,-8.741127122447454,0A8.741127122447454,8.741127122447454,0,1,1,8.741127122447454,0" fill="olive" stroke-width="2" opacity="0.5"/><path transform="translate(327.2,213.33333333333334)" d="M9.236134460654029,0A9.236134460654029,9.236134460654029,0,1,1,-9.236134460654029,0A9.236134460654029,9.236134460654029,0,1,1,9.236134460654029,0" fill="olive" stroke-width="2" opacity="0.5"/><path transform="translate(173.82857142857142,180)" d="M7.847027634501436,0A7.847027634501436,7.847027634501436,0,1,1,-7.847027634501436,0A7.847027634501436,7.847027634501436,0,1,1,7.847027634501436,0" fill="olive" stroke-width="2" opacity="0.5"/><path transform="translate(389.25714285714287,220.00000000000003)" d="M9.5,0A9.5,9.5,0,1,1,-9.5,0A9.5,9.5,0,1,1,9.5,0" fill="olive" stroke-width="2" opacity="0.5"/><path transform="translate(89.02857142857142,166.66666666666669)" d="M5.193178325803525,0A5.193178325803525,5.193178325803525,0,1,1,-5.193178325803525,0A5.193178325803525,5.193178325803525,0,1,1,5.193178325803525,0" fill="fuchsia" stroke-width="2" opacity="0.5"/><path transform="translate(92.57142857142857,173.33333333333331)" d="M5.3802071719854005,0A5.3802071719854005,5.3802071719854005,0,1,1,-5.3802071719854005,0A5.3802071719854005,5.3802071719854005,0,1,1,5.3802071719854005,0" fill="olive" stroke-width="2" opacity="0.5"/><path transform="translate(149.37142857142857,166.66666666666669)" d="M7.050579703634544,0A7.050579703634544,7.050579703634544,0,1,1,-7.050579703634544,0A7.050579703634544,7.050579703634544,0,1,1,7.050579703634544,0" fill="fuchsia" stroke-width="2" opacity="0.5"/><path transform="translate(157.14285714285714,160)" d="M7.32568975162603,0A7.32568975162603,7.32568975162603,0,1,1,-7.32568975162603,0A7.32568975162603,7.32568975162603,0,1,1,7.32568975162603,0" fill="olive" stroke-width="2" opacity="0.5"/><path transform="translate(108.6857142857143,126.66666666666669)" d="M5.821550432505266,0A5.821550432505266,5.821550432505266,0,1,1,-5.821550432505266,0A5.821550432505266,5.821550432505266,0,1,1,5.821550432505266,0" fill="olive" stroke-width="2" opacity="0.5"/><path transform="translate(38.4,86.66666666666666)" d="M2.860521677887256,0A2.860521677887256,2.860521677887256,0,1,1,-2.860521677887256,0A2.860521677887256,2.860521677887256,0,1,1,2.860521677887256,0" fill="fuchsia" stroke-width="2" opacity="0.5"/><path transform="translate(301.8285714285714,193.33333333333331)" d="M8.90918601812859,0A8.90918601812859,8.90918601812859,0,1,1,-8.90918601812859,0A8.90918601812859,8.90918601812859,0,1,1,8.90918601812859,0" fill="olive" stroke-width="2" opacity="0.5"/><path transform="translate(358.62857142857143,206.66666666666666)" d="M9.342575012552404,0A9.342575012552404,9.342575012552404,0,1,1,-9.342575012552404,0A9.342575012552404,9.342575012552404,0,1,1,9.342575012552404,0" fill="olive" stroke-width="2" opacity="0.5"/><path transform="translate(17.02857142857143,93.33333333333333)" d="M1.5,0A1.5,1.5,0,1,1,-1.5,0A1.5,1.5,0,1,1,1.5,0" fill="fuchsia" stroke-width="2" opacity="0.5"/><path transform="translate(113.02857142857144,140)" d="M5.905862636664187,0A5.905862636664187,5.905862636664187,0,1,1,-5.905862636664187,0A5.905862636664187,5.905862636664187,0,1,1,5.905862636664187,0" fill="green" stroke-width="2" opacity="0.5"/><path transform="translate(189.48571428571427,200.00000000000003)" d="M8.03381197386774,0A8.03381197386774,8.03381197386774,0,1,1,-8.03381197386774,0A8.03381197386774,8.03381197386774,0,1,1,8.03381197386774,0" fill="olive" stroke-width="2" opacity="0.5"/><path transform="translate(360.8,206.66666666666666)" d="M9.39534309698759,0A9.39534309698759,9.39534309698759,0,1,1,-9.39534309698759,0A9.39534309698759,9.39534309698759,0,1,1,9.39534309698759,0" fill="olive" stroke-width="2" opacity="0.5"/><path transform="translate(190.74285714285713,213.33333333333334)" d="M8.095115742001747,0A8.095115742001747,8.095115742001747,0,1,1,-8.095115742001747,0A8.095115742001747,8.095115742001747,0,1,1,8.095115742001747,0" fill="olive" stroke-width="2" opacity="0.5"/><path transform="translate(76.68571428571428,106.66666666666666)" d="M4.250908693338534,0A4.250908693338534,4.250908693338534,0,1,1,-4.250908693338534,0A4.250908693338534,4.250908693338534,0,1,1,4.250908693338534,0" fill="fuchsia" stroke-width="2" opacity="0.5"/><path transform="translate(130.17142857142858,146.66666666666669)" d="M6.541355046372015,0A6.541355046372015,6.541355046372015,0,1,1,-6.541355046372015,0A6.541355046372015,6.541355046372015,0,1,1,6.541355046372015,0" fill="olive" stroke-width="2" opacity="0.5"/><path transform="translate(137.37142857142857,140)" d="M6.690803683608141,0A6.690803683608141,6.690803683608141,0,1,1,-6.690803683608141,0A6.690803683608141,6.690803683608141,0,1,1,6.690803683608141,0" fill="fuchsia" stroke-width="2" opacity="0.5"/><path transform="translate(169.6,180)" d="M7.719994469346567,0A7.719994469346567,7.719994469346567,0,1,1,-7.719994469346567,0A7.719994469346567,7.719994469346567,0,1,1,7.719994469346567,0" fill="olive" stroke-width="2" opacity="0.5"/><path transform="translate(33.714285714285715,80.00000000000001)" d="M2.490995018014946,0A2.490995018014946,2.490995018014946,0,1,1,-2.490995018014946,0A2.490995018014946,2.490995018014946,0,1,1,2.490995018014946,0" fill="green" stroke-width="2" opacity="0.5"/><path transform="translate(310.2857142857143,203.33333333333334)" d="M9.019485772232562,0A9.019485772232562,9.019485772232562,0,1,1,-9.019485772232562,0A9.019485772232562,9.019485772232562,0,1,1,9.019485772232562,0" fill="olive" stroke-width="2" opacity="0.5"/><path transform="translate(172.8,140)" d="M7.783770208047343,0A7.783770208047343,7.783770208047343,0,1,1,-7.783770208047343,0A7.783770208047343,7.783770208047343,0,1,1,7.783770208047343,0" fill="olive" stroke-width="2" opacity="0.5"/><path transform="translate(33.714285714285715,80.00000000000001)" d="M2.490995018014946,0A2.490995018014946,2.490995018014946,0,1,1,-2.490995018014946,0A2.490995018014946,2.490995018014946,0,1,1,2.490995018014946,0" fill="green" stroke-width="2" opacity="0.5"/><path transform="translate(237.0285714285714,180)" d="M8.511888579569826,0A8.511888579569826,8.511888579569826,0,1,1,-8.511888579569826,0A8.511888579569826,8.511888579569826,0,1,1,8.511888579569826,0" fill="olive" stroke-width="2" opacity="0.5"/><path transform="translate(74.85714285714286,113.33333333333333)" d="M4.132972377618474,0A4.132972377618474,4.132972377618474,0,1,1,-4.132972377618474,0A4.132972377618474,4.132972377618474,0,1,1,4.132972377618474,0" fill="fuchsia" stroke-width="2" opacity="0.5"/><path transform="translate(121.71428571428571,123.33333333333333)" d="M6.231714825224382,0A6.231714825224382,6.231714825224382,0,1,1,-6.231714825224382,0A6.231714825224382,6.231714825224382,0,1,1,6.231714825224382,0" fill="olive" stroke-width="2" opacity="0.5"/><path transform="translate(163.42857142857144,173.33333333333331)" d="M7.590835692916421,0A7.590835692916421,7.590835692916421,0,1,1,-7.590835692916421,0A7.590835692916421,7.590835692916421,0,1,1,7.590835692916421,0" fill="fuchsia" stroke-width="2" opacity="0.5"/><path transform="translate(265.1428571428571,190)" d="M8.627269282971227,0A8.627269282971227,8.627269282971227,0,1,1,-8.627269282971227,0A8.627269282971227,8.627269282971227,0,1,1,8.627269282971227,0" fill="cornflowerblue" stroke-width="2" opacity="0.5"/><path transform="translate(270.8571428571429,213.33333333333334)" d="M8.684384798351735,0A8.684384798351735,8.684384798351735,0,1,1,-8.684384798351735,0A8.684384798351735,8.684384798351735,0,1,1,8.684384798351735,0" fill="olive" stroke-width="2" opacity="0.5"/><path transform="translate(62.28571428571429,90.00000000000001)" d="M3.4839116592471457,0A3.4839116592471457,3.4839116592471457,0,1,1,-3.4839116592471457,0A3.4839116592471457,3.4839116592471457,0,1,1,3.4839116592471457,0" fill="green" stroke-width="2" opacity="0.5"/><path transform="translate(231.42857142857144,176.66666666666669)" d="M8.394922221267068,0A8.394922221267068,8.394922221267068,0,1,1,-8.394922221267068,0A8.394922221267068,8.394922221267068,0,1,1,8.394922221267068,0" fill="olive" stroke-width="2" opacity="0.5"/><path transform="translate(324,193.33333333333331)" d="M9.128452863732893,0A9.128452863732893,9.128452863732893,0,1,1,-9.128452863732893,0A9.128452863732893,9.128452863732893,0,1,1,9.128452863732893,0" fill="olive" stroke-width="2" opacity="0.5"/><path transform="translate(87.42857142857143,126.66666666666669)" d="M4.999157232345055,0A4.999157232345055,4.999157232345055,0,1,1,-4.999157232345055,0A4.999157232345055,4.999157232345055,0,1,1,4.999157232345055,0" fill="fuchsia" stroke-width="2" opacity="0.5"/><path transform="translate(143.42857142857144,130)" d="M6.908917865151946,0A6.908917865151946,6.908917865151946,0,1,1,-6.908917865151946,0A6.908917865151946,6.908917865151946,0,1,1,6.908917865151946,0" fill="olive" stroke-width="2" opacity="0.5"/><path transform="translate(125.71428571428571,156.66666666666663)" d="M6.388411207241514,0A6.388411207241514,6.388411207241514,0,1,1,-6.388411207241514,0A6.388411207241514,6.388411207241514,0,1,1,6.388411207241514,0" fill="lightcoral" stroke-width="2" opacity="0.5"/><path transform="translate(34.285714285714285,59.333333333333314)" d="M2.682129792668338,0A2.682129792668338,2.682129792668338,0,1,1,-2.682129792668338,0A2.682129792668338,2.682129792668338,0,1,1,2.682129792668338,0" fill="olive" stroke-width="2" opacity="0.5"/><path transform="translate(34.285714285714285,59.333333333333314)" d="M2.682129792668338,0A2.682129792668338,2.682129792668338,0,1,1,-2.682129792668338,0A2.682129792668338,2.682129792668338,0,1,1,2.682129792668338,0" fill="green" stroke-width="2" opacity="0.5"/><path transform="translate(167.42857142857144,165.33333333333334)" d="M7.655687465002588,0A7.655687465002588,7.655687465002588,0,1,1,-7.655687465002588,0A7.655687465002588,7.655687465002588,0,1,1,7.655687465002588,0" fill="olive" stroke-width="2" opacity="0.5"/><path transform="translate(139.42857142857144,132.66666666666666)" d="M6.836986326041022,0A6.836986326041022,6.836986326041022,0,1,1,-6.836986326041022,0A6.836986326041022,6.836986326041022,0,1,1,6.836986326041022,0" fill="olive" stroke-width="2" opacity="0.5"/><path transform="translate(194.85714285714286,179.33333333333331)" d="M8.15595873710432,0A8.15595873710432,8.15595873710432,0,1,1,-8.15595873710432,0A8.15595873710432,8.15595873710432,0,1,1,8.15595873710432,0" fill="olive" stroke-width="2" opacity="0.5"/><path transform="translate(121.14285714285715,116.66666666666666)" d="M6.151870091116809,0A6.151870091116809,6.151870091116809,0,1,1,-6.151870091116809,0A6.151870091116809,6.151870091116809,0,1,1,6.151870091116809,0" fill="fuchsia" stroke-width="2" opacity="0.5"/><path transform="translate(115.99999999999999,159.33333333333331)" d="M6.070975339517837,0A6.070975339517837,6.070975339517837,0,1,1,-6.070975339517837,0A6.070975339517837,6.070975339517837,0,1,1,6.070975339517837,0" fill="fuchsia" stroke-width="2" opacity="0.5"/><path transform="translate(72.57142857142857,103.33333333333333)" d="M4.011570344542581,0A4.011570344542581,4.011570344542581,0,1,1,-4.011570344542581,0A4.011570344542581,4.011570344542581,0,1,1,4.011570344542581,0" fill="green" stroke-width="2" opacity="0.5"/><path transform="translate(158.85714285714286,151.33333333333334)" d="M7.39286780498762,0A7.39286780498762,7.39286780498762,0,1,1,-7.39286780498762,0A7.39286780498762,7.39286780498762,0,1,1,7.39286780498762,0" fill="olive" stroke-width="2" opacity="0.5"/><path transform="translate(254.28571428571428,182.66666666666666)" d="M8.569773114613657,0A8.569773114613657,8.569773114613657,0,1,1,-8.569773114613657,0A8.569773114613657,8.569773114613657,0,1,1,8.569773114613657,0" fill="olive" stroke-width="2" opacity="0.5"/><path transform="translate(291.8857142857143,196.66666666666666)" d="M8.797503476312489,0A8.797503476312489,8.797503476312489,0,1,1,-8.797503476312489,0A8.797503476312489,8.797503476312489,0,1,1,8.797503476312489,0" fill="olive" stroke-width="2" opacity="0.5"/><path transform="translate(231.99999999999997,130.66666666666669)" d="M8.453607700033603,0A8.453607700033603,8.453607700033603,0,1,1,-8.453607700033603,0A8.453607700033603,8.453607700033603,0,1,1,8.453607700033603,0" fill="cornflowerblue" stroke-width="2" opacity="0.5"/><path transform="translate(53.48571428571428,46)" d="M3.338993322020034,0A3.338993322020034,3.338993322020034,0,1,1,-3.338993322020034,0A3.338993322020034,3.338993322020034,0,1,1,3.338993322020034,0" fill="fuchsia" stroke-width="2" opacity="0.5"/><path transform="translate(156.57142857142856,124)" d="M7.257889933867475,0A7.257889933867475,7.257889933867475,0,1,1,-7.257889933867475,0A7.257889933867475,7.257889933867475,0,1,1,7.257889933867475,0" fill="olive" stroke-width="2" opacity="0.5"/><path transform="translate(138.39999999999998,101.33333333333331)" d="M6.764289909334763,0A6.764289909334763,6.764289909334763,0,1,1,-6.764289909334763,0A6.764289909334763,6.764289909334763,0,1,1,6.764289909334763,0" fill="fuchsia" stroke-width="2" opacity="0.5"/><path transform="translate(87.42857142857143,85.33333333333331)" d="M4.999157232345055,0A4.999157232345055,4.999157232345055,0,1,1,-4.999157232345055,0A4.999157232345055,4.999157232345055,0,1,1,4.999157232345055,0" fill="fuchsia" stroke-width="2" opacity="0.5"/><path transform="translate(200,100.00000000000001)" d="M8.216351195408588,0A8.216351195408588,8.216351195408588,0,1,1,-8.216351195408588,0A8.216351195408588,8.216351195408588,0,1,1,8.216351195408588,0" fill="cornflowerblue" stroke-width="2" opacity="0.5"/><path transform="translate(40,2.6666666666666505)" d="M3.028423404117519,0A3.028423404117519,3.028423404117519,0,1,1,-3.028423404117519,0A3.028423404117519,3.028423404117519,0,1,1,3.028423404117519,0" fill="green" stroke-width="2" opacity="0.5"/><path transform="translate(160.57142857142856,142.66666666666666)" d="M7.525425069184472,0A7.525425069184472,7.525425069184472,0,1,1,-7.525425069184472,0A7.525425069184472,7.525425069184472,0,1,1,7.525425069184472,0" fill="olive" stroke-width="2" opacity="0.5"/><path transform="translate(90.28571428571428,84.00000000000001)" d="M5.287519755853336,0A5.287519755853336,5.287519755853336,0,1,1,-5.287519755853336,0A5.287519755853336,5.287519755853336,0,1,1,5.287519755853336,0" fill="green" stroke-width="2" opacity="0.5"/><path transform="translate(29.142857142857142,39.33333333333332)" d="M1.7996566464033688,0A1.7996566464033688,1.7996566464033688,0,1,1,-1.7996566464033688,0A1.7996566464033688,1.7996566464033688,0,1,1,1.7996566464033688,0" fill="fuchsia" stroke-width="2" opacity="0.5"/><path transform="translate(29.714285714285715,65.99999999999999)" d="M2.0560953503881185,0A2.0560953503881185,2.0560953503881185,0,1,1,-2.0560953503881185,0A2.0560953503881185,2.0560953503881185,0,1,1,2.0560953503881185,0" fill="green" stroke-width="2" opacity="0.5"/><path transform="translate(62.857142857142854,48.66666666666665)" d="M3.7570159088465203,0A3.7570159088465203,3.7570159088465203,0,1,1,-3.7570159088465203,0A3.7570159088465203,3.7570159088465203,0,1,1,3.7570159088465203,0" fill="fuchsia" stroke-width="2" opacity="0.5"/><path transform="translate(62.28571428571429,70.66666666666669)" d="M3.4839116592471457,0A3.4839116592471457,3.4839116592471457,0,1,1,-3.4839116592471457,0A3.4839116592471457,3.4839116592471457,0,1,1,3.4839116592471457,0" fill="olive" stroke-width="2" opacity="0.5"/><path transform="translate(100.57142857142858,100.66666666666669)" d="M5.649152268111969,0A5.649152268111969,5.649152268111969,0,1,1,-5.649152268111969,0A5.649152268111969,5.649152268111969,0,1,1,5.649152268111969,0" fill="olive" stroke-width="2" opacity="0.5"/><path transform="translate(81.14285714285714,75.33333333333331)" d="M4.477471698290093,0A4.477471698290093,4.477471698290093,0,1,1,-4.477471698290093,0A4.477471698290093,4.477471698290093,0,1,1,4.477471698290093,0" fill="green" stroke-width="2" opacity="0.5"/><path transform="translate(97.14285714285714,84.00000000000001)" d="M5.47132463471388,0A5.47132463471388,5.47132463471388,0,1,1,-5.47132463471388,0A5.47132463471388,5.47132463471388,0,1,1,5.47132463471388,0" fill="fuchsia" stroke-width="2" opacity="0.5"/><path transform="translate(160,130.66666666666669)" d="M7.459440892383711,0A7.459440892383711,7.459440892383711,0,1,1,-7.459440892383711,0A7.459440892383711,7.459440892383711,0,1,1,7.459440892383711,0" fill="fuchsia" stroke-width="2" opacity="0.5"/><path transform="translate(178.28571428571428,165.33333333333334)" d="M7.909779184122211,0A7.909779184122211,7.909779184122211,0,1,1,-7.909779184122211,0A7.909779184122211,7.909779184122211,0,1,1,7.909779184122211,0" fill="olive" stroke-width="2" opacity="0.5"/><path transform="translate(156,140)" d="M7.189450761163262,0A7.189450761163262,7.189450761163262,0,1,1,-7.189450761163262,0A7.189450761163262,7.189450761163262,0,1,1,7.189450761163262,0" fill="olive" stroke-width="2" opacity="0.5"/><path transform="translate(80.57142857142857,59.999999999999986)" d="M4.365660175053132,0A4.365660175053132,4.365660175053132,0,1,1,-4.365660175053132,0A4.365660175053132,4.365660175053132,0,1,1,4.365660175053132,0" fill="green" stroke-width="2" opacity="0.5"/><path transform="translate(85.14285714285714,73.33333333333334)" d="M4.89926616839339,0A4.89926616839339,4.89926616839339,0,1,1,-4.89926616839339,0A4.89926616839339,4.89926616839339,0,1,1,4.89926616839339,0" fill="fuchsia" stroke-width="2" opacity="0.5"/><path transform="translate(53.142857142857146,46.666666666666664)" d="M3.1874931152161823,0A3.1874931152161823,3.1874931152161823,0,1,1,-3.1874931152161823,0A3.1874931152161823,3.1874931152161823,0,1,1,3.1874931152161823,0" fill="green" stroke-width="2" opacity="0.5"/><path transform="translate(53.142857142857146,86.66666666666666)" d="M3.1874931152161823,0A3.1874931152161823,3.1874931152161823,0,1,1,-3.1874931152161823,0A3.1874931152161823,3.1874931152161823,0,1,1,3.1874931152161823,0" fill="green" stroke-width="2" opacity="0.5"/><path transform="translate(152.57142857142858,153.33333333333331)" d="M7.120353797547366,0A7.120353797547366,7.120353797547366,0,1,1,-7.120353797547366,0A7.120353797547366,7.120353797547366,0,1,1,7.120353797547366,0" fill="olive" stroke-width="2" opacity="0.5"/><path transform="translate(133.14285714285714,86.66666666666666)" d="M6.616501332852616,0A6.616501332852616,6.616501332852616,0,1,1,-6.616501332852616,0A6.616501332852616,6.616501332852616,0,1,1,6.616501332852616,0" fill="fuchsia" stroke-width="2" opacity="0.5"/><path transform="translate(147.42857142857142,120)" d="M6.980108173399575,0A6.980108173399575,6.980108173399575,0,1,1,-6.980108173399575,0A6.980108173399575,6.980108173399575,0,1,1,6.980108173399575,0" fill="olive" stroke-width="2" opacity="0.5"/><path transform="translate(128.57142857142858,113.33333333333333)" d="M6.4653353971586665,0A6.4653353971586665,6.4653353971586665,0,1,1,-6.4653353971586665,0A6.4653353971586665,6.4653353971586665,0,1,1,6.4653353971586665,0" fill="olive" stroke-width="2" opacity="0.5"/></g><g class="mark-group role-legend" role="graphics-symbol" aria-roledescription="legend" aria-label="Symbol legend titled 'Manufacturer' for fill color with 5 values: bmw, ford, honda, mercedes, toyota"><g transform="translate(418,0)"><path class="background" aria-hidden="true" d="M0,0h70v79h-70Z" pointer-events="none"/><g><g class="mark-group role-legend-entry"><g transform="translate(0,16)"><path class="background" aria-hidden="true" d="M0,0h0v0h0Z" pointer-events="none"/><g><g class="mark-group role-scope" role="graphics-object" aria-roledescription="group mark container"><g transform="translate(0,0)"><path class="background" aria-hidden="true" d="M0,0h59.90625v11h-59.90625Z" pointer-events="none" opacity="1"/><g><g class="mark-symbol role-legend-symbol" pointer-events="none"><path transform="translate(6,6)" d="M5,0A5,5,0,1,1,-5,0A5,5,0,1,1,5,0" fill="lightcoral" stroke-width="1.5" opacity="0.5"/></g><g class="mark-text role-legend-label" pointer-events="none"><text text-anchor="start" transform="translate(16,9)" font-family="sans-serif" font-size="10px" fill="#000" opacity="1">bmw</text></g></g><path class="foreground" aria-hidden="true" d="" pointer-events="none" display="none"/></g><g transform="translate(0,13)"><path class="background" aria-hidden="true" d="M0,0h59.90625v11h-59.90625Z" pointer-events="none" opacity="1"/><g><g class="mark-symbol role-legend-symbol" pointer-events="none"><path transform="translate(6,6)" d="M5,0A5,5,0,1,1,-5,0A5,5,0,1,1,5,0" fill="olive" stroke-width="1.5" opacity="0.5"/></g><g class="mark-text role-legend-label" pointer-events="none"><text text-anchor="start" transform="translate(16,9)" font-family="sans-serif" font-size="10px" fill="#000" opacity="1">ford</text></g></g><path class="foreground" aria-hidden="true" d="" pointer-events="none" display="none"/></g><g transform="translate(0,26)"><path class="background" aria-hidden="true" d="M0,0h59.90625v11h-59.90625Z" pointer-events="none" opacity="1"/><g><g class="mark-symbol role-legend-symbol" pointer-events="none"><path transform="translate(6,6)" d="M5,0A5,5,0,1,1,-5,0A5,5,0,1,1,5,0" fill="green" stroke-width="1.5" opacity="0.5"/></g><g class="mark-text role-legend-label" pointer-events="none"><text text-anchor="start" transform="translate(16,9)" font-family="sans-serif" font-size="10px" fill="#000" opacity="1">honda</text></g></g><path class="foreground" aria-hidden="true" d="" pointer-events="none" display="none"/></g><g transform="translate(0,39)"><path class="background" aria-hidden="true" d="M0,0h59.90625v11h-59.90625Z" pointer-events="none" opacity="1"/><g><g class="mark-symbol role-legend-symbol" pointer-events="none"><path transform="translate(6,6)" d="M5,0A5,5,0,1,1,-5,0A5,5,0,1,1,5,0" fill="cornflowerblue" stroke-width="1.5" opacity="0.5"/></g><g class="mark-text role-legend-label" pointer-events="none"><text text-anchor="start" transform="translate(16,9)" font-family="sans-serif" font-size="10px" fill="#000" opacity="1">mercedes</text></g></g><path class="foreground" aria-hidden="true" d="" pointer-events="none" display="none"/></g><g transform="translate(0,52)"><path class="background" aria-hidden="true" d="M0,0h59.90625v11h-59.90625Z" pointer-events="none" opacity="1"/><g><g class="mark-symbol role-legend-symbol" pointer-events="none"><path transform="translate(6,6)" d="M5,0A5,5,0,1,1,-5,0A5,5,0,1,1,5,0" fill="fuchsia" stroke-width="1.5" opacity="0.5"/></g><g class="mark-text role-legend-label" pointer-events="none"><text text-anchor="start" transform="translate(16,9)" font-family="sans-serif" font-size="10px" fill="#000" opacity="1">toyota</text></g></g><path class="foreground" aria-hidden="true" d="" pointer-events="none" display="none"/></g></g></g><path class="foreground" aria-hidden="true" d="" pointer-events="none" display="none"/></g></g><g class="mark-text role-legend-title" pointer-events="none"><text text-anchor="start" transform="translate(0,9)" font-family="sans-serif" font-size="11px" font-weight="bold" fill="#000" opacity="1">Manufacturer</text></g></g><path class="foreground" aria-hidden="true" d="" pointer-events="none" display="none"/></g></g><g class="mark-group role-legend" role="graphics-symbol" aria-roledescription="legend" aria-label="Symbol legend titled 'Weight' for size with 90 values: 1649, 1755, 1760, 1773, 1795, ending with 4906"><g transform="translate(418,87)"><path class="background" aria-hidden="true" d="M0,0h71v439h-71Z" pointer-events="none"/><g><g class="mark-group role-legend-entry"><g transform="translate(0,16)"><path class="background" aria-hidden="true" d="M0,0h0v0h0Z" pointer-events="none"/><g><g class="mark-group role-scope" role="graphics-object" aria-roledescription="group mark container"><g transform="translate(0,0)"><path class="background" aria-hidden="true" d="M0,0h70.916015625v10h-70.916015625Z" pointer-events="none" opacity="1"/><g><g class="mark-symbol role-legend-symbol" pointer-events="none"><path transform="translate(6.5,5)" d="M1.5,0A1.5,1.5,0,1,1,-1.5,0A1.5,1.5,0,1,1,1.5,0" fill="black" fill-opacity="0.5" stroke-width="1.5" opacity="0.5"/></g><g class="mark-text role-legend-label" pointer-events="none"><text text-anchor="start" transform="translate(17,8)" font-family="sans-serif" font-size="10px" fill="#000" opacity="1">1649</text></g></g><path class="foreground" aria-hidden="true" d="" pointer-events="none" display="none"/></g><g transform="translate(0,12)"><path class="background" aria-hidden="true" d="M0,0h70.916015625v10h-70.916015625Z" pointer-events="none" opacity="1"/><g><g class="mark-symbol role-legend-symbol" pointer-events="none"><path transform="translate(6.5,5)" d="M1.7996566464033688,0A1.7996566464033688,1.7996566464033688,0,1,1,-1.7996566464033688,0A1.7996566464033688,1.7996566464033688,0,1,1,1.7996566464033688,0" fill="black" fill-opacity="0.5" stroke-width="1.5" opacity="0.5"/></g><g class="mark-text role-legend-label" pointer-events="none"><text text-anchor="start" transform="translate(17,8)" font-family="sans-serif" font-size="10px" fill="#000" opacity="1">1755</text></g></g><path class="foreground" aria-hidden="true" d="" pointer-events="none" display="none"/></g><g transform="translate(0,24)"><path class="background" aria-hidden="true" d="M0,0h70.916015625v10h-70.916015625Z" pointer-events="none" opacity="1"/><g><g class="mark-symbol role-legend-symbol" pointer-events="none"><path transform="translate(6.5,5)" d="M2.0560953503881185,0A2.0560953503881185,2.0560953503881185,0,1,1,-2.0560953503881185,0A2.0560953503881185,2.0560953503881185,0,1,1,2.0560953503881185,0" fill="black" fill-opacity="0.5" stroke-width="1.5" opacity="0.5"/></g><g class="mark-text role-legend-label" pointer-events="none"><text text-anchor="start" transform="translate(17,8)" font-family="sans-serif" font-size="10px" fill="#000" opacity="1">1760</text></g></g><path class="foreground" aria-hidden="true" d="" pointer-events="none" display="none"/></g><g transform="translate(0,36)"><path class="background" aria-hidden="true" d="M0,0h70.916015625v10h-70.916015625Z" pointer-events="none" opacity="1"/><g><g class="mark-symbol role-legend-symbol" pointer-events="none"><path transform="translate(6.5,5)" d="M2.283920343363897,0A2.283920343363897,2.283920343363897,0,1,1,-2.283920343363897,0A2.283920343363897,2.283920343363897,0,1,1,2.283920343363897,0" fill="black" fill-opacity="0.5" stroke-width="1.5" opacity="0.5"/></g><g class="mark-text role-legend-label" pointer-events="none"><text text-anchor="start" transform="translate(17,8)" font-family="sans-serif" font-size="10px" fill="#000" opacity="1">1773</text></g></g><path class="foreground" aria-hidden="true" d="" pointer-events="none" display="none"/></g><g transform="translate(0,48)"><path class="background" aria-hidden="true" d="M0,0h70.916015625v10h-70.916015625Z" pointer-events="none" opacity="1"/><g><g class="mark-symbol role-legend-symbol" pointer-events="none"><path transform="translate(6.5,5)" d="M2.490995018014946,0A2.490995018014946,2.490995018014946,0,1,1,-2.490995018014946,0A2.490995018014946,2.490995018014946,0,1,1,2.490995018014946,0" fill="black" fill-opacity="0.5" stroke-width="1.5" opacity="0.5"/></g><g class="mark-text role-legend-label" pointer-events="none"><text text-anchor="start" transform="translate(17,8)" font-family="sans-serif" font-size="10px" fill="#000" opacity="1">1795</text></g></g><path class="foreground" aria-hidden="true" d="" pointer-events="none" display="none"/></g><g transform="translate(0,60)"><path class="background" aria-hidden="true" d="M0,0h70.916015625v10h-70.916015625Z" pointer-events="none" opacity="1"/><g><g class="mark-symbol role-legend-symbol" pointer-events="none"><path transform="translate(6.5,5)" d="M2.682129792668338,0A2.682129792668338,2.682129792668338,0,1,1,-2.682129792668338,0A2.682129792668338,2.682129792668338,0,1,1,2.682129792668338,0" fill="black" fill-opacity="0.5" stroke-width="1.5" opacity="0.5"/></g><g class="mark-text role-legend-label" pointer-events="none"><text text-anchor="start" transform="translate(17,8)" font-family="sans-serif" font-size="10px" fill="#000" opacity="1">1800</text></g></g><path class="foreground" aria-hidden="true" d="" pointer-events="none" display="none"/></g><g transform="translate(0,72)"><path class="background" aria-hidden="true" d="M0,0h70.916015625v10h-70.916015625Z" pointer-events="none" opacity="1"/><g><g class="mark-symbol role-legend-symbol" pointer-events="none"><path transform="translate(6.5,5)" d="M2.860521677887256,0A2.860521677887256,2.860521677887256,0,1,1,-2.860521677887256,0A2.860521677887256,2.860521677887256,0,1,1,2.860521677887256,0" fill="black" fill-opacity="0.5" stroke-width="1.5" opacity="0.5"/></g><g class="mark-text role-legend-label" pointer-events="none"><text text-anchor="start" transform="translate(17,8)" font-family="sans-serif" font-size="10px" fill="#000" opacity="1">1836</text></g></g><path class="foreground" aria-hidden="true" d="" pointer-events="none" display="none"/></g><g transform="translate(0,84)"><path class="background" aria-hidden="true" d="M0,0h70.916015625v10h-70.916015625Z" pointer-events="none" opacity="1"/><g><g class="mark-symbol role-legend-symbol" pointer-events="none"><path transform="translate(6.5,5)" d="M3.028423404117519,0A3.028423404117519,3.028423404117519,0,1,1,-3.028423404117519,0A3.028423404117519,3.028423404117519,0,1,1,3.028423404117519,0" fill="black" fill-opacity="0.5" stroke-width="1.5" opacity="0.5"/></g><g class="mark-text role-legend-label" pointer-events="none"><text text-anchor="start" transform="translate(17,8)" font-family="sans-serif" font-size="10px" fill="#000" opacity="1">1850</text></g></g><path class="foreground" aria-hidden="true" d="" pointer-events="none" display="none"/></g><g transform="translate(0,96)"><path class="background" aria-hidden="true" d="M0,0h70.916015625v10h-70.916015625Z" pointer-events="none" opacity="1"/><g><g class="mark-symbol role-legend-symbol" pointer-events="none"><path transform="translate(6.5,5)" d="M3.1874931152161823,0A3.1874931152161823,3.1874931152161823,0,1,1,-3.1874931152161823,0A3.1874931152161823,3.1874931152161823,0,1,1,3.1874931152161823,0" fill="black" fill-opacity="0.5" stroke-width="1.5" opacity="0.5"/></g><g class="mark-text role-legend-label" pointer-events="none"><text text-anchor="start" transform="translate(17,8)" font-family="sans-serif" font-size="10px" fill="#000" opacity="1">1965</text></g></g><path class="foreground" aria-hidden="true" d="" pointer-events="none" display="none"/></g><g transform="translate(0,108)"><path class="background" aria-hidden="true" d="M0,0h70.916015625v10h-70.916015625Z" pointer-events="none" opacity="1"/><g><g class="mark-symbol role-legend-symbol" pointer-events="none"><path transform="translate(6.5,5)" d="M3.338993322020034,0A3.338993322020034,3.338993322020034,0,1,1,-3.338993322020034,0A3.338993322020034,3.338993322020034,0,1,1,3.338993322020034,0" fill="black" fill-opacity="0.5" stroke-width="1.5" opacity="0.5"/></g><g class="mark-text role-legend-label" pointer-events="none"><text text-anchor="start" transform="translate(17,8)" font-family="sans-serif" font-size="10px" fill="#000" opacity="1">1968</text></g></g><path class="foreground" aria-hidden="true" d="" pointer-events="none" display="none"/></g><g transform="translate(0,120)"><path class="background" aria-hidden="true" d="M0,0h70.916015625v10h-70.916015625Z" pointer-events="none" opacity="1"/><g><g class="mark-symbol role-legend-symbol" pointer-events="none"><path transform="translate(6.5,5)" d="M3.4839116592471457,0A3.4839116592471457,3.4839116592471457,0,1,1,-3.4839116592471457,0A3.4839116592471457,3.4839116592471457,0,1,1,3.4839116592471457,0" fill="black" fill-opacity="0.5" stroke-width="1.5" opacity="0.5"/></g><g class="mark-text role-legend-label" pointer-events="none"><text text-anchor="start" transform="translate(17,8)" font-family="sans-serif" font-size="10px" fill="#000" opacity="1">2045</text></g></g><path class="foreground" aria-hidden="true" d="" pointer-events="none" display="none"/></g><g transform="translate(0,133)"><path class="background" aria-hidden="true" d="M0,0h70.916015625v10.12303802000227h-70.916015625Z" pointer-events="none" opacity="1"/><g><g class="mark-symbol role-legend-symbol" pointer-events="none"><path transform="translate(6.5,5)" d="M3.6230380200022774,0A3.6230380200022774,3.6230380200022774,0,1,1,-3.6230380200022774,0A3.6230380200022774,3.6230380200022774,0,1,1,3.6230380200022774,0" fill="black" fill-opacity="0.5" stroke-width="1.5" opacity="0.5"/></g><g class="mark-text role-legend-label" pointer-events="none"><text text-anchor="start" transform="translate(17,8)" font-family="sans-serif" font-size="10px" fill="#000" opacity="1">2046</text></g></g><path class="foreground" aria-hidden="true" d="" pointer-events="none" display="none"/></g><g transform="translate(0,147)"><path class="background" aria-hidden="true" d="M0,0h70.916015625v10.257015908846512h-70.916015625Z" pointer-events="none" opacity="1"/><g><g class="mark-symbol role-legend-symbol" pointer-events="none"><path transform="translate(6.5,5)" d="M3.7570159088465203,0A3.7570159088465203,3.7570159088465203,0,1,1,-3.7570159088465203,0A3.7570159088465203,3.7570159088465203,0,1,1,3.7570159088465203,0" fill="black" fill-opacity="0.5" stroke-width="1.5" opacity="0.5"/></g><g class="mark-text role-legend-label" pointer-events="none"><text text-anchor="start" transform="translate(17,8)" font-family="sans-serif" font-size="10px" fill="#000" opacity="1">2050</text></g></g><path class="foreground" aria-hidden="true" d="" pointer-events="none" display="none"/></g><g transform="translate(0,161)"><path class="background" aria-hidden="true" d="M0,0h70.916015625v10.386377823149672h-70.916015625Z" pointer-events="none" opacity="1"/><g><g class="mark-symbol role-legend-symbol" pointer-events="none"><path transform="translate(6.5,5)" d="M3.886377823149682,0A3.886377823149682,3.886377823149682,0,1,1,-3.886377823149682,0A3.886377823149682,3.886377823149682,0,1,1,3.886377823149682,0" fill="black" fill-opacity="0.5" stroke-width="1.5" opacity="0.5"/></g><g class="mark-text role-legend-label" pointer-events="none"><text text-anchor="start" transform="translate(17,8)" font-family="sans-serif" font-size="10px" fill="#000" opacity="1">2100</text></g></g><path class="foreground" aria-hidden="true" d="" pointer-events="none" display="none"/></g><g transform="translate(0,175)"><path class="background" aria-hidden="true" d="M0,0h70.916015625v10.511570344542577h-70.916015625Z" pointer-events="none" opacity="1"/><g><g class="mark-symbol role-legend-symbol" pointer-events="none"><path transform="translate(6.5,5)" d="M4.011570344542581,0A4.011570344542581,4.011570344542581,0,1,1,-4.011570344542581,0A4.011570344542581,4.011570344542581,0,1,1,4.011570344542581,0" fill="black" fill-opacity="0.5" stroke-width="1.5" opacity="0.5"/></g><g class="mark-text role-legend-label" pointer-events="none"><text text-anchor="start" transform="translate(17,8)" font-family="sans-serif" font-size="10px" fill="#000" opacity="1">2135</text></g></g><path class="foreground" aria-hidden="true" d="" pointer-events="none" display="none"/></g><g transform="translate(0,189)"><path class="background" aria-hidden="true" d="M0,0h70.916015625v10.632972377618472h-70.916015625Z" pointer-events="none" opacity="1"/><g><g class="mark-symbol role-legend-symbol" pointer-events="none"><path transform="translate(6.5,5)" d="M4.132972377618474,0A4.132972377618474,4.132972377618474,0,1,1,-4.132972377618474,0A4.132972377618474,4.132972377618474,0,1,1,4.132972377618474,0" fill="black" fill-opacity="0.5" stroke-width="1.5" opacity="0.5"/></g><g class="mark-text role-legend-label" pointer-events="none"><text text-anchor="start" transform="translate(17,8)" font-family="sans-serif" font-size="10px" fill="#000" opacity="1">2155</text></g></g><path class="foreground" aria-hidden="true" d="" pointer-events="none" display="none"/></g><g transform="translate(0,203)"><path class="background" aria-hidden="true" d="M0,0h70.916015625v11.250908693338545h-70.916015625Z" pointer-events="none" opacity="1"/><g><g class="mark-symbol role-legend-symbol" pointer-events="none"><path transform="translate(6.5,5.5)" d="M4.250908693338534,0A4.250908693338534,4.250908693338534,0,1,1,-4.250908693338534,0A4.250908693338534,4.250908693338534,0,1,1,4.250908693338534,0" fill="black" fill-opacity="0.5" stroke-width="1.5" opacity="0.5"/></g><g class="mark-text role-legend-label" pointer-events="none"><text text-anchor="start" transform="translate(17,8.5)" font-family="sans-serif" font-size="10px" fill="#000" opacity="1">2171</text></g></g><path class="foreground" aria-hidden="true" d="" pointer-events="none" display="none"/></g><g transform="translate(0,218)"><path class="background" aria-hidden="true" d="M0,0h70.916015625v11.365660175053137h-70.916015625Z" pointer-events="none" opacity="1"/><g><g class="mark-symbol role-legend-symbol" pointer-events="none"><path transform="translate(6.5,5.5)" d="M4.365660175053132,0A4.365660175053132,4.365660175053132,0,1,1,-4.365660175053132,0A4.365660175053132,4.365660175053132,0,1,1,4.365660175053132,0" fill="black" fill-opacity="0.5" stroke-width="1.5" opacity="0.5"/></g><g class="mark-text role-legend-label" pointer-events="none"><text text-anchor="start" transform="translate(17,8.5)" font-family="sans-serif" font-size="10px" fill="#000" opacity="1">2205</text></g></g><path class="foreground" aria-hidden="true" d="" pointer-events="none" display="none"/></g><g transform="translate(0,233)"><path class="background" aria-hidden="true" d="M0,0h70.916015625v11.477471698290088h-70.916015625Z" pointer-events="none" opacity="1"/><g><g class="mark-symbol role-legend-symbol" pointer-events="none"><path transform="translate(6.5,5.5)" d="M4.477471698290093,0A4.477471698290093,4.477471698290093,0,1,1,-4.477471698290093,0A4.477471698290093,4.477471698290093,0,1,1,4.477471698290093,0" fill="black" fill-opacity="0.5" stroke-width="1.5" opacity="0.5"/></g><g class="mark-text role-legend-label" pointer-events="none"><text text-anchor="start" transform="translate(17,8.5)" font-family="sans-serif" font-size="10px" fill="#000" opacity="1">2210</text></g></g><path class="foreground" aria-hidden="true" d="" pointer-events="none" display="none"/></g><g transform="translate(0,248)"><path class="background" aria-hidden="true" d="M0,0h70.916015625v11.586558279792428h-70.916015625Z" pointer-events="none" opacity="1"/><g><g class="mark-symbol role-legend-symbol" pointer-events="none"><path transform="translate(6.5,5.5)" d="M4.586558279792439,0A4.586558279792439,4.586558279792439,0,1,1,-4.586558279792439,0A4.586558279792439,4.586558279792439,0,1,1,4.586558279792439,0" fill="black" fill-opacity="0.5" stroke-width="1.5" opacity="0.5"/></g><g class="mark-text role-legend-label" pointer-events="none"><text text-anchor="start" transform="translate(17,8.5)" font-family="sans-serif" font-size="10px" fill="#000" opacity="1">2226</text></g></g><path class="foreground" aria-hidden="true" d="" pointer-events="none" display="none"/></g><g transform="translate(0,263)"><path class="background" aria-hidden="true" d="M0,0h70.916015625v11.69310993892924h-70.916015625Z" pointer-events="none" opacity="1"/><g><g class="mark-symbol role-legend-symbol" pointer-events="none"><path transform="translate(6.5,5.5)" d="M4.693109938929239,0A4.693109938929239,4.693109938929239,0,1,1,-4.693109938929239,0A4.693109938929239,4.693109938929239,0,1,1,4.693109938929239,0" fill="black" fill-opacity="0.5" stroke-width="1.5" opacity="0.5"/></g><g class="mark-text role-legend-label" pointer-events="none"><text text-anchor="start" transform="translate(17,8.5)" font-family="sans-serif" font-size="10px" fill="#000" opacity="1">2228</text></g></g><path class="foreground" aria-hidden="true" d="" pointer-events="none" display="none"/></g><g transform="translate(0,278)"><path class="background" aria-hidden="true" d="M0,0h70.916015625v12.297295586454936h-70.916015625Z" pointer-events="none" opacity="1"/><g><g class="mark-symbol role-legend-symbol" pointer-events="none"><path transform="translate(6.5,6)" d="M4.7972955864549585,0A4.7972955864549585,4.7972955864549585,0,1,1,-4.7972955864549585,0A4.7972955864549585,4.7972955864549585,0,1,1,4.7972955864549585,0" fill="black" fill-opacity="0.5" stroke-width="1.5" opacity="0.5"/></g><g class="mark-text role-legend-label" pointer-events="none"><text text-anchor="start" transform="translate(17,9)" font-family="sans-serif" font-size="10px" fill="#000" opacity="1">2234</text></g></g><path class="foreground" aria-hidden="true" d="" pointer-events="none" display="none"/></g><g transform="translate(0,294)"><path class="background" aria-hidden="true" d="M0,0h70.916015625v12.39926616839341h-70.916015625Z" pointer-events="none" opacity="1"/><g><g class="mark-symbol role-legend-symbol" pointer-events="none"><path transform="translate(6.5,6)" d="M4.89926616839339,0A4.89926616839339,4.89926616839339,0,1,1,-4.89926616839339,0A4.89926616839339,4.89926616839339,0,1,1,4.89926616839339,0" fill="black" fill-opacity="0.5" stroke-width="1.5" opacity="0.5"/></g><g class="mark-text role-legend-label" pointer-events="none"><text text-anchor="start" transform="translate(17,9)" font-family="sans-serif" font-size="10px" fill="#000" opacity="1">2245</text></g></g><path class="foreground" aria-hidden="true" d="" pointer-events="none" display="none"/></g><g transform="translate(0,310)"><path class="background" aria-hidden="true" d="M0,0h70.916015625v12.499157232345055h-70.916015625Z" pointer-events="none" opacity="1"/><g><g class="mark-symbol role-legend-symbol" pointer-events="none"><path transform="translate(6.5,6)" d="M4.999157232345055,0A4.999157232345055,4.999157232345055,0,1,1,-4.999157232345055,0A4.999157232345055,4.999157232345055,0,1,1,4.999157232345055,0" fill="black" fill-opacity="0.5" stroke-width="1.5" opacity="0.5"/></g><g class="mark-text role-legend-label" pointer-events="none"><text text-anchor="start" transform="translate(17,9)" font-family="sans-serif" font-size="10px" fill="#000" opacity="1">2265</text></g></g><path class="foreground" aria-hidden="true" d="" pointer-events="none" display="none"/></g><g transform="translate(0,326)"><path class="background" aria-hidden="true" d="M0,0h70.916015625v12.597091040843964h-70.916015625Z" pointer-events="none" opacity="1"/><g><g class="mark-symbol role-legend-symbol" pointer-events="none"><path transform="translate(6.5,6)" d="M5.097091040843952,0A5.097091040843952,5.097091040843952,0,1,1,-5.097091040843952,0A5.097091040843952,5.097091040843952,0,1,1,5.097091040843952,0" fill="black" fill-opacity="0.5" stroke-width="1.5" opacity="0.5"/></g><g class="mark-text role-legend-label" pointer-events="none"><text text-anchor="start" transform="translate(17,9)" font-family="sans-serif" font-size="10px" fill="#000" opacity="1">2278</text></g></g><path class="foreground" aria-hidden="true" d="" pointer-events="none" display="none"/></g><g transform="translate(0,342)"><path class="background" aria-hidden="true" d="M0,0h70.916015625v12.693178325803501h-70.916015625Z" pointer-events="none" opacity="1"/><g><g class="mark-symbol role-legend-symbol" pointer-events="none"><path transform="translate(6.5,6)" d="M5.193178325803525,0A5.193178325803525,5.193178325803525,0,1,1,-5.193178325803525,0A5.193178325803525,5.193178325803525,0,1,1,5.193178325803525,0" fill="black" fill-opacity="0.5" stroke-width="1.5" opacity="0.5"/></g><g class="mark-text role-legend-label" pointer-events="none"><text text-anchor="start" transform="translate(17,9)" font-family="sans-serif" font-size="10px" fill="#000" opacity="1">2279</text></g></g><path class="foreground" aria-hidden="true" d="" pointer-events="none" display="none"/></g><g transform="translate(0,358)"><path class="background" aria-hidden="true" d="M0,0h70.916015625v13.287519755853339h-70.916015625Z" pointer-events="none" opacity="1"/><g><g class="mark-symbol role-legend-symbol" pointer-events="none"><path transform="translate(6.5,6.5)" d="M5.287519755853336,0A5.287519755853336,5.287519755853336,0,1,1,-5.287519755853336,0A5.287519755853336,5.287519755853336,0,1,1,5.287519755853336,0" fill="black" fill-opacity="0.5" stroke-width="1.5" opacity="0.5"/></g><g class="mark-text role-legend-label" pointer-events="none"><text text-anchor="start" transform="translate(17,9.5)" font-family="sans-serif" font-size="10px" fill="#000" opacity="1">2290</text></g></g><path class="foreground" aria-hidden="true" d="" pointer-events="none" display="none"/></g><g transform="translate(0,375)"><path class="background" aria-hidden="true" d="M0,0h70.916015625v13.380207171985376h-70.916015625Z" pointer-events="none" opacity="1"/><g><g class="mark-symbol role-legend-symbol" pointer-events="none"><path transform="translate(6.5,6.5)" d="M5.3802071719854005,0A5.3802071719854005,5.3802071719854005,0,1,1,-5.3802071719854005,0A5.3802071719854005,5.3802071719854005,0,1,1,5.3802071719854005,0" fill="black" fill-opacity="0.5" stroke-width="1.5" opacity="0.5"/></g><g class="mark-text role-legend-label" pointer-events="none"><text text-anchor="start" transform="translate(17,9.5)" font-family="sans-serif" font-size="10px" fill="#000" opacity="1">2310</text></g></g><path class="foreground" aria-hidden="true" d="" pointer-events="none" display="none"/></g><g transform="translate(0,392)"><path class="background" aria-hidden="true" d="M0,0h70.916015625v13.47132463471388h-70.916015625Z" pointer-events="none" opacity="1"/><g><g class="mark-symbol role-legend-symbol" pointer-events="none"><path transform="translate(6.5,6.5)" d="M5.47132463471388,0A5.47132463471388,5.47132463471388,0,1,1,-5.47132463471388,0A5.47132463471388,5.47132463471388,0,1,1,5.47132463471388,0" fill="black" fill-opacity="0.5" stroke-width="1.5" opacity="0.5"/></g><g class="mark-text role-legend-label" pointer-events="none"><text text-anchor="start" transform="translate(17,9.5)" font-family="sans-serif" font-size="10px" fill="#000" opacity="1">2350</text></g></g><path class="foreground" aria-hidden="true" d="" pointer-events="none" display="none"/></g><g transform="translate(0,409)"><path class="background" aria-hidden="true" d="M0,0h70.916015625v13.560949316741755h-70.916015625Z" pointer-events="none" opacity="1"/><g><g class="mark-symbol role-legend-symbol" pointer-events="none"><path transform="translate(6.5,6.5)" d="M5.560949316741772,0A5.560949316741772,5.560949316741772,0,1,1,-5.560949316741772,0A5.560949316741772,5.560949316741772,0,1,1,5.560949316741772,0" fill="black" fill-opacity="0.5" stroke-width="1.5" opacity="0.5"/></g><g class="mark-text role-legend-label" pointer-events="none"><text text-anchor="start" transform="translate(17,9.5)" font-family="sans-serif" font-size="10px" fill="#000" opacity="1">61 entries</text></g></g><path class="foreground" aria-hidden="true" d="" pointer-events="none" display="none"/></g></g></g><path class="foreground" aria-hidden="true" d="" pointer-events="none" display="none"/></g></g><g class="mark-text role-legend-title" pointer-events="none"><text text-anchor="start" transform="translate(0,9)" font-family="sans-serif" font-size="11px" font-weight="bold" fill="#000" opacity="1">Weight</text></g></g><path class="foreground" aria-hidden="true" d="" pointer-events="none" display="none"/></g></g></g><path class="foreground" aria-hidden="true" d="" display="none"/></g></g></g></svg>